<?xml version="1.0" encoding="utf-8"?>
<!-- Generator: Adobe Illustrator 18.0.0, SVG Export Plug-In . SVG Version: 6.00 Build 0)  -->
<!DOCTYPE svg PUBLIC "-//W3C//DTD SVG 1.1//EN" "http://www.w3.org/Graphics/SVG/1.1/DTD/svg11.dtd">
<svg version="1.1" id="Layer_1" xmlns="http://www.w3.org/2000/svg" xmlns:xlink="http://www.w3.org/1999/xlink" x="0px" y="0px"
	 preserveAspectRatio="none" enable-background="new 0 0 0 0" xml:space="preserve">

<g>
	<path fill="#C2C4C6" d="M40.8,5c0,0,0.2-0.3,0-0.8L49.6,4l0.8,0.7c0,0.3-0.4,0.5-0.4,0.7c0,0,0,0.1,0,0.1L40.8,5z"/>
	<path fill="#EDEFEE" d="M50.5,5.8c0,0-0.4-0.5-1.9-0.7S41.9,4.9,41.4,5c-0.5,0-0.7,0-0.7,0.4l0,0.5"/>
	<path fill="#EDEFEE" d="M50.4,4.8c-0.1,0.4-0.9,0-2.2-0.2c-2.2-0.2-5.5-0.2-6.4-0.2c-1,0-1.1-0.1-1.1-0.4l0-0.5
		c0-0.3,0.5-0.5,1.4-0.6c0.9-0.1,2-0.1,3.2-0.1c1.2,0,2.8,0,3.7,0.1s1.4,0.3,1.4,0.5S50.4,4.5,50.4,4.8"/>
	<path fill="#C2C4C6" d="M45.6,6.2c-2.9,0-5,0.2-5.1,0.2c-0.1,0,0-0.1,0-0.1c0.1-0.3,2.2-0.5,5.1-0.5s5.1,0.2,5.1,0.5
		c0,0,0,0.1,0,0.1C50.6,6.4,48.4,6.2,45.6,6.2z"/>
	<path fill="none" stroke="#C2C4C6" stroke-miterlimit="10" d="M50,6c0,0,0.4,0.3,0.4,0.8s-0.5,0.8-0.5,0.8s-0.2,2.3,0.5,3.1
		c0.7,0.8,2.6,1.4,4,2c2,0.9,4.8,3.5,4.8,8l-0.2,38c0,0,0.1,4.3-1.5,5.9c0,0-2.6,1.9-11.9,1.9l0,0c-9.3,0-11.9-2-11.9-2
		c-1.5-1.6-1.5-5.9-1.5-5.9l-0.2-38c0-4.5,2.8-7.1,4.8-8c1.4-0.6,3.3-1.3,4-2c0.7-0.8,0.5-3.1,0.5-3.1s-0.5-0.4-0.5-0.8
		S41.2,6,41.2,6h0c-0.5,0-0.7,0-0.7,0c-0.1,0,0-0.1,0-0.1c0,0,0.1-0.1,0.2-0.1l0,0l0-0.5c0-0.1,0-0.3,0.1-0.3l0,0c0,0,0.2-0.3,0-0.8
		l0,0c0-0.1-0.1-0.1-0.1-0.2l0-0.5c0-0.3,0.5-0.5,1.4-0.6c0.9-0.1,2-0.1,3.2-0.1c1.2,0,2.8,0,3.7,0.1c0.9,0.1,1.4,0.3,1.4,0.5
		c0,0.2,0,1,0,1.3l0,0l0,0C50.3,5,50,5.3,50,5.4c0,0,0,0.1,0,0.1c0.3,0.2,0.4,0.3,0.4,0.3l0,0c0.1,0,0.2,0.1,0.2,0.1
		c0,0,0,0.1,0,0.1C50.6,6,50.4,6,50,6"/>
</g>
</svg>
