<?xml version="1.0" encoding="UTF-8" standalone="no"?>
<svg width="53px" height="66px" viewBox="0 0 53 66" version="1.1" xmlns="http://www.w3.org/2000/svg" xmlns:xlink="http://www.w3.org/1999/xlink" xmlns:sketch="http://www.bohemiancoding.com/sketch/ns">
    <!-- Generator: Sketch 3.5.2 (25235) - http://www.bohemiancoding.com/sketch -->
    <title>Untitled</title>
    <desc>Created with Sketch.</desc>
    <defs></defs>
    <g id="Page-1" stroke="none" stroke-width="1" fill="none" fill-rule="evenodd" sketch:type="MSPage">
        <g id="large" sketch:type="MSLayerGroup" transform="translate(1.000000, 0.000000)">
            <g id="Group" sketch:type="MSShapeGroup">
                <path d="M9.3,3 C9.3,3 9.5,2.7 9.3,2.2 L18.2,2 L19,2.7 C19,3 18.6,3.2 18.6,3.4 L18.6,3.5 L9.3,3 L9.3,3 Z" id="Shape" fill="#C2C4C6"></path>
                <path d="M19,3.8 C19,3.8 18.6,3.3 17.1,3.1 C15.6,2.9 10.4,2.9 9.9,3 C9.4,3 9.2,3 9.2,3.4 L9.2,3.9" id="Shape" fill="#EDEFEE"></path>
                <path d="M18.9,2.8 C18.8,3.2 18,2.8 16.7,2.6 C14.5,2.4 11.2,2.4 10.3,2.4 C9.3,2.4 9.2,2.3 9.2,2 L9.2,1.5 C9.2,1.2 9.7,1 10.6,0.9 C11.5,0.8 12.6,0.8 13.8,0.8 C15,0.8 16.6,0.8 17.5,0.9 C18.4,1 18.9,1.2 18.9,1.4 L18.9,2.8" id="Shape" fill="#EDEFEE"></path>
                <path d="M14.1,4.2 C11.2,4.2 9.1,4.4 9,4.4 C8.9,4.4 9,4.3 9,4.3 C9.1,4 11.2,3.8 14.1,3.8 C17,3.8 19.2,4 19.2,4.3 L19.2,4.4 C19.1,4.4 16.9,4.2 14.1,4.2 L14.1,4.2 Z" id="Shape" fill="#C2C4C6"></path>
                <path d="M18.5,4 C18.5,4 18.9,4.3 18.9,4.8 C18.9,5.3 18.4,5.6 18.4,5.6 C18.4,5.6 18.2,7.9 18.9,8.7 C19.6,9.5 21.5,10.1 22.9,10.7 C24.9,11.6 27.7,14.2 27.7,18.7 L27.5,56.7 C27.5,56.7 27.6,61 26,62.6 C26,62.6 23.4,64.5 14.1,64.5 L14.1,64.5 C4.8,64.5 2.2,62.5 2.2,62.5 C0.7,60.9 0.7,56.6 0.7,56.6 L0.5,18.6 C0.5,14.1 3.3,11.5 5.3,10.6 C6.7,10 8.6,9.3 9.3,8.6 C10,7.8 9.8,5.5 9.8,5.5 C9.8,5.5 9.3,5.1 9.3,4.7 C9.3,4.3 9.7,4 9.7,4 L9.7,4 L9,4 C8.9,4 9,3.9 9,3.9 C9,3.9 9.1,3.8 9.2,3.8 L9.2,3.8 L9.2,3.3 C9.2,3.2 9.2,3 9.3,3 L9.3,3 C9.3,3 9.5,2.7 9.3,2.2 L9.3,2.2 C9.3,2.1 9.2,2.1 9.2,2 L9.2,1.5 C9.2,1.2 9.7,1 10.6,0.9 C11.5,0.8 12.6,0.8 13.8,0.8 C15,0.8 16.6,0.8 17.5,0.9 C18.4,1 18.9,1.2 18.9,1.4 L18.9,2.7 L18.9,2.7 L18.9,2.7 C18.9,3 18.6,3.2 18.6,3.4 L18.6,3.5 C18.9,3.7 19,3.8 19,3.8 L19,3.8 C19.1,3.8 19.2,3.9 19.2,3.9 L19.2,4 C19.1,4 18.9,4 18.5,4" id="Shape" stroke="#C2C4C6"></path>
            </g>
            <g id="Group" transform="translate(30.000000, 16.000000)" sketch:type="MSShapeGroup">
                <path d="M6.91428571,2.26153846 C6.91428571,2.26153846 7.07142857,2.03538462 6.91428571,1.65846154 L13.8285714,1.50769231 L14.4571429,2.03538462 C14.4571429,2.26153846 14.1428571,2.41230769 14.1428571,2.56307692 L14.1428571,2.63846154 L6.91428571,2.26153846 L6.91428571,2.26153846 Z" id="Shape" fill="#C2C4C6"></path>
                <path d="M14.5357143,2.86461538 C14.5357143,2.86461538 14.2214286,2.48769231 13.0428571,2.33692308 C11.8642857,2.18615385 7.77857143,2.18615385 7.38571429,2.26153846 C6.99285714,2.26153846 6.83571429,2.26153846 6.83571429,2.56307692 L6.83571429,2.94" id="Shape" fill="#EDEFEE"></path>
                <path d="M14.4571429,2.11076923 C14.3785714,2.41230769 13.75,2.11076923 12.7285714,1.96 C11,1.80923077 8.40714286,1.80923077 7.7,1.80923077 C6.91428571,1.80923077 6.83571429,1.73384615 6.83571429,1.50769231 L6.83571429,1.13076923 C6.83571429,0.904615385 7.22857143,0.753846154 7.93571429,0.678461538 C8.64285714,0.603076923 9.50714286,0.603076923 10.45,0.603076923 C11.3928571,0.603076923 12.65,0.603076923 13.3571429,0.678461538 C14.0642857,0.753846154 14.4571429,0.904615385 14.4571429,1.05538462 L14.4571429,2.11076923" id="Shape" fill="#EDEFEE"></path>
                <path id="Shape" fill="#C2C4C6" d="M10.6857143,3.16615385 C8.40714286,3.16615385 6.75714286,3.31692308 6.67857143,3.31692308 C6.6,3.31692308 6.67857143,3.24153846 6.67857143,3.24153846 C6.75714286,3.01538462 8.40714286,2.86461538 10.6857143,2.86461538 C12.9642857,2.86461538 14.6928571,3.01538462 14.6928571,3.24153846 L14.6928571,3.31692308 C14.6142857,3.31692308 12.8857143,3.16615385 10.6857143,3.16615385 L10.6857143,3.16615385 Z"></path>
                <path d="M14.1428571,3.01538462 C14.1428571,3.01538462 14.4571429,3.24153846 14.4571429,3.61846154 C14.4571429,3.99538462 14.0642857,4.22153846 14.0642857,4.22153846 C14.0642857,4.22153846 13.9071429,5.95538462 14.4571429,6.55846154 C15.0071429,7.16153846 16.5,7.61384615 17.6,8.06615385 C19.1714286,8.74461538 21.3714286,10.7046154 21.3714286,14.0969231 L21.2142857,42.7430769 C21.2142857,42.7430769 21.2928571,45.9846154 20.0357143,47.1907692 C20.0357143,47.1907692 17.9928571,48.6230769 10.6857143,48.6230769 L10.6857143,48.6230769 C3.37857143,48.6230769 1.33571429,47.1153846 1.33571429,47.1153846 C0.157142857,45.9092308 0.157142857,42.6676923 0.157142857,42.6676923 L-5.32907052e-15,14.0215385 C-5.32907052e-15,10.6292308 2.2,8.66923077 3.77142857,7.99076923 C4.87142857,7.53846154 6.36428571,7.01076923 6.91428571,6.48307692 C7.46428571,5.88 7.30714286,4.14615385 7.30714286,4.14615385 C7.30714286,4.14615385 6.91428571,3.84461538 6.91428571,3.54307692 C6.91428571,3.24153846 7.22857143,3.01538462 7.22857143,3.01538462 L7.22857143,3.01538462 L6.67857143,3.01538462 C6.6,3.01538462 6.67857143,2.94 6.67857143,2.94 C6.67857143,2.94 6.75714286,2.86461538 6.83571429,2.86461538 L6.83571429,2.86461538 L6.83571429,2.48769231 C6.83571429,2.41230769 6.83571429,2.26153846 6.91428571,2.26153846 L6.91428571,2.26153846 C6.91428571,2.26153846 7.07142857,2.03538462 6.91428571,1.65846154 L6.91428571,1.65846154 C6.91428571,1.58307692 6.83571429,1.58307692 6.83571429,1.50769231 L6.83571429,1.13076923 C6.83571429,0.904615385 7.22857143,0.753846154 7.93571429,0.678461538 C8.64285714,0.603076923 9.50714286,0.603076923 10.45,0.603076923 C11.3928571,0.603076923 12.65,0.603076923 13.3571429,0.678461538 C14.0642857,0.753846154 14.4571429,0.904615385 14.4571429,1.05538462 L14.4571429,2.03538462 L14.4571429,2.03538462 L14.4571429,2.03538462 C14.3785714,2.26153846 14.1428571,2.48769231 14.1428571,2.56307692 L14.1428571,2.63846154 C14.3785714,2.78923077 14.4571429,2.86461538 14.4571429,2.86461538 L14.4571429,2.86461538 C14.5357143,2.86461538 14.6142857,2.94 14.6142857,2.94 L14.6142857,3.01538462 C14.6142857,3.01538462 14.4571429,3.01538462 14.1428571,3.01538462" id="Shape" stroke="#C2C4C6"></path>
            </g>
        </g>
    </g>
</svg>