<?xml version="1.0" encoding="UTF-8" standalone="no"?>
<svg width="52px" height="66px" viewBox="0 0 52 66" version="1.1" xmlns="http://www.w3.org/2000/svg" xmlns:xlink="http://www.w3.org/1999/xlink" xmlns:sketch="http://www.bohemiancoding.com/sketch/ns">
    <!-- Generator: Sketch 3.5.2 (25235) - http://www.bohemiancoding.com/sketch -->
    <title>Untitled</title>
    <desc>Created with Sketch.</desc>
    <defs></defs>
    <g id="Page-1" stroke="none" stroke-width="1" fill="none" fill-rule="evenodd" sketch:type="MSPage">
        <g id="large" sketch:type="MSLayerGroup" transform="translate(1.000000, 0.000000)">
            <g id="Group" transform="translate(0.000000, 16.000000)" sketch:type="MSShapeGroup">
                <path d="M6.975,2.26153846 C6.975,2.26153846 7.125,2.03538462 6.975,1.65846154 L13.65,1.50769231 L14.25,2.03538462 C14.25,2.26153846 13.95,2.41230769 13.95,2.56307692 L13.95,2.63846154 L6.975,2.26153846 L6.975,2.26153846 Z" id="Shape" fill="#C2C4C6"></path>
                <path d="M14.25,2.86461538 C14.25,2.86461538 13.95,2.48769231 12.825,2.33692308 C11.7,2.18615385 7.8,2.18615385 7.425,2.26153846 C7.05,2.26153846 6.9,2.26153846 6.9,2.56307692 L6.9,2.94" id="Shape" fill="#EDEFEE"></path>
                <path d="M14.175,2.11076923 C14.1,2.41230769 13.5,2.11076923 12.525,1.96 C10.875,1.80923077 8.4,1.80923077 7.725,1.80923077 C6.975,1.80923077 6.9,1.73384615 6.9,1.50769231 L6.9,1.13076923 C6.9,0.904615385 7.275,0.753846154 7.95,0.678461538 C8.625,0.603076923 9.45,0.603076923 10.35,0.603076923 C11.25,0.603076923 12.45,0.603076923 13.125,0.678461538 C13.8,0.753846154 14.175,0.904615385 14.175,1.05538462 L14.175,2.11076923" id="Shape" fill="#EDEFEE"></path>
                <path id="Shape" fill="#C2C4C6" d="M10.575,3.16615385 C8.4,3.16615385 6.825,3.31692308 6.75,3.31692308 C6.675,3.31692308 6.75,3.24153846 6.75,3.24153846 C6.825,3.01538462 8.4,2.86461538 10.575,2.86461538 C12.75,2.86461538 14.4,3.01538462 14.4,3.24153846 L14.4,3.31692308 C14.325,3.31692308 12.675,3.16615385 10.575,3.16615385 L10.575,3.16615385 Z"></path>
                <path d="M13.875,3.01538462 C13.875,3.01538462 14.175,3.24153846 14.175,3.61846154 C14.175,3.99538462 13.8,4.22153846 13.8,4.22153846 C13.8,4.22153846 13.65,5.95538462 14.175,6.55846154 C14.7,7.16153846 16.125,7.61384615 17.175,8.06615385 C18.675,8.74461538 20.775,10.7046154 20.775,14.0969231 L20.625,42.7430769 C20.625,42.7430769 20.7,45.9846154 19.5,47.1907692 C19.5,47.1907692 17.55,48.6230769 10.575,48.6230769 L10.575,48.6230769 C3.6,48.6230769 1.65,47.1153846 1.65,47.1153846 C0.525,45.9092308 0.525,42.6676923 0.525,42.6676923 L0.375,14.0215385 C0.375,10.6292308 2.475,8.66923077 3.975,7.99076923 C5.025,7.53846154 6.45,7.01076923 6.975,6.48307692 C7.5,5.88 7.35,4.14615385 7.35,4.14615385 C7.35,4.14615385 6.975,3.84461538 6.975,3.54307692 C6.975,3.24153846 7.275,3.01538462 7.275,3.01538462 L7.275,3.01538462 L6.75,3.01538462 C6.675,3.01538462 6.75,2.94 6.75,2.94 C6.75,2.94 6.825,2.86461538 6.9,2.86461538 L6.9,2.86461538 L6.9,2.48769231 C6.9,2.41230769 6.9,2.26153846 6.975,2.26153846 L6.975,2.26153846 C6.975,2.26153846 7.125,2.03538462 6.975,1.65846154 L6.975,1.65846154 C6.975,1.58307692 6.9,1.58307692 6.9,1.50769231 L6.9,1.13076923 C6.9,0.904615385 7.275,0.753846154 7.95,0.678461538 C8.625,0.603076923 9.45,0.603076923 10.35,0.603076923 C11.25,0.603076923 12.45,0.603076923 13.125,0.678461538 C13.8,0.753846154 14.175,0.904615385 14.175,1.05538462 L14.175,2.03538462 L14.175,2.03538462 L14.175,2.03538462 C14.175,2.26153846 13.95,2.41230769 13.95,2.56307692 L13.95,2.63846154 C14.175,2.78923077 14.25,2.86461538 14.25,2.86461538 L14.25,2.86461538 C14.325,2.86461538 14.4,2.94 14.4,2.94 L14.4,3.01538462 C14.325,3.01538462 14.175,3.01538462 13.875,3.01538462" id="Shape" stroke="#C2C4C6"></path>
            </g>
            <g id="Group" transform="translate(23.000000, 0.000000)" sketch:type="MSShapeGroup">
                <path d="M8.8,3 C8.8,3 9,2.7 8.8,2.2 L17.6,2 L18.4,2.7 C18.4,3 18,3.2 18,3.4 L18,3.5 L8.8,3 L8.8,3 Z" id="Shape" fill="#C2C4C6"></path>
                <path d="M18.5,3.8 C18.5,3.8 18.1,3.3 16.6,3.1 C15.1,2.9 9.9,2.9 9.4,3 C8.9,3 8.7,3 8.7,3.4 L8.7,3.9" id="Shape" fill="#EDEFEE"></path>
                <path d="M18.4,2.8 C18.3,3.2 17.5,2.8 16.2,2.6 C14,2.4 10.7,2.4 9.8,2.4 C8.8,2.4 8.7,2.3 8.7,2 L8.7,1.5 C8.7,1.2 9.2,1 10.1,0.9 C11,0.8 12.1,0.8 13.3,0.8 C14.5,0.8 16.1,0.8 17,0.9 C17.9,1 18.4,1.2 18.4,1.4 L18.4,2.8" id="Shape" fill="#EDEFEE"></path>
                <path d="M13.6,4.2 C10.7,4.2 8.6,4.4 8.5,4.4 C8.4,4.4 8.5,4.3 8.5,4.3 C8.6,4 10.7,3.8 13.6,3.8 C16.5,3.8 18.7,4 18.7,4.3 L18.7,4.4 C18.6,4.4 16.4,4.2 13.6,4.2 L13.6,4.2 Z" id="Shape" fill="#C2C4C6"></path>
                <path d="M18,4 C18,4 18.4,4.3 18.4,4.8 C18.4,5.3 17.9,5.6 17.9,5.6 C17.9,5.6 17.7,7.9 18.4,8.7 C19.1,9.5 21,10.1 22.4,10.7 C24.4,11.6 27.2,14.2 27.2,18.7 L27,56.7 C27,56.7 27.1,61 25.5,62.6 C25.5,62.6 22.9,64.5 13.6,64.5 L13.6,64.5 C4.3,64.5 1.7,62.5 1.7,62.5 C0.2,60.9 0.2,56.6 0.2,56.6 L-7.10542736e-15,18.6 C-7.10542736e-15,14.1 2.8,11.5 4.8,10.6 C6.2,10 8.1,9.3 8.8,8.6 C9.5,7.8 9.3,5.5 9.3,5.5 C9.3,5.5 8.8,5.1 8.8,4.7 C8.8,4.3 9.2,4 9.2,4 L9.2,4 L8.5,4 C8.4,4 8.5,3.9 8.5,3.9 C8.5,3.9 8.6,3.8 8.7,3.8 L8.7,3.8 L8.7,3.3 C8.7,3.2 8.7,3 8.8,3 L8.8,3 C8.8,3 9,2.7 8.8,2.2 L8.8,2.2 C8.8,2.1 8.7,2.1 8.7,2 L8.7,1.5 C8.7,1.2 9.2,1 10.1,0.9 C11,0.8 12.1,0.8 13.3,0.8 C14.5,0.8 16.1,0.8 17,0.9 C17.9,1 18.4,1.2 18.4,1.4 L18.4,2.7 L18.4,2.7 L18.4,2.7 C18.3,3 18,3.3 18,3.4 L18,3.5 C18.3,3.7 18.4,3.8 18.4,3.8 L18.4,3.8 C18.5,3.8 18.6,3.9 18.6,3.9 L18.6,4 C18.6,4 18.4,4 18,4" id="Shape" stroke="#C2C4C6"></path>
            </g>
        </g>
    </g>
</svg>